# xmcd CD database file
#
# Track frame offsets:
#	150
#	16523
#	36928
#	50034
#	67759
#	80867
#	100888
#	115449
#	134541
#	148015
#	156205
#	172775
#	199980
#	217023
#	235184
#	259227
#
# Disc length: 3668 seconds
#
# Revision: 0
# Processed by: cddbd v1.5.2PL0 Copyright (c) Steve Scherf et al.
# Submitted via: CDex 1.70beta2
#
DISCID=e70e5210
DTITLE=Manu Lanvin and the Devil Blues - Son(s) of the Blues 2
DYEAR=2017
DGENRE=Blues
TTITLE0=Son of the Blues
TTITLE1=All Night Long
TTITLE2=Merci
TTITLE3=Just Wanna Drown
TTITLE4=Laisse couler
TTITLE5=Luzern (If you feel like stompin')
TTITLE6=Ain't Gonna be Your Dawg
TTITLE7=Lorqu'une femme pleure
TTITLE8=Back in Montreux
TTITLE9=Ain't Got Time for Love
TTITLE10=Hey Hey Hey
TTITLE11=Goin' down
TTITLE12=Freedom
TTITLE13=Do it for me
TTITLE14=Summertime
TTITLE15=In God We Trust $
EXTD=YEAR: 2017
EXTT0=
EXTT1=
EXTT2=
EXTT3=
EXTT4=
EXTT5=
EXTT6=
EXTT7=
EXTT8=
EXTT9=
EXTT10=
EXTT11=
EXTT12=
EXTT13=
EXTT14=
EXTT15=
PLAYORDER=
